<svg xmlns="http://www.w3.org/2000/svg" xmlns:xlink="http://www.w3.org/1999/xlink" width="500" zoomAndPan="magnify" viewBox="0 0 375 374.999991" height="500" preserveAspectRatio="xMidYMid meet" version="1.0"><defs><g/></defs><g fill="#ffb600" fill-opacity="1"><g transform="translate(31.424568, 202.782716)"><g><path d="M 49.6875 -37.96875 C 53.738281 -33.550781 55.765625 -28.128906 55.765625 -21.703125 C 55.765625 -15.285156 53.738281 -9.851562 49.6875 -5.40625 C 45.632812 -0.957031 40.476562 1.265625 34.21875 1.265625 C 28.476562 1.265625 23.75 -0.535156 20.03125 -4.140625 L 20.03125 21.96875 L 5.0625 21.96875 L 5.0625 -43.34375 L 19.859375 -43.34375 L 19.859375 -38.453125 L 20.03125 -38.453125 C 23.75 -42.554688 28.476562 -44.609375 34.21875 -44.609375 C 40.476562 -44.609375 45.632812 -42.394531 49.6875 -37.96875 Z M 36.96875 -14.359375 C 38.914062 -16.273438 39.890625 -18.722656 39.890625 -21.703125 C 39.890625 -24.691406 38.957031 -27.128906 37.09375 -29.015625 C 35.238281 -30.910156 32.789062 -31.859375 29.75 -31.859375 C 26.8125 -31.859375 24.398438 -30.898438 22.515625 -28.984375 C 20.628906 -27.066406 19.6875 -24.644531 19.6875 -21.71875 C 19.6875 -18.726562 20.65625 -16.273438 22.59375 -14.359375 C 24.539062 -12.441406 26.925781 -11.484375 29.75 -11.484375 C 32.613281 -11.484375 35.019531 -12.441406 36.96875 -14.359375 Z M 36.96875 -14.359375 "/></g></g></g><g fill="#1c2120" fill-opacity="1"><g transform="translate(83.725346, 202.782716)"><g><path d="M 5.0625 0 L 5.0625 -43.34375 L 20.03125 -43.34375 L 20.03125 -37.09375 L 20.203125 -37.09375 C 20.304688 -37.320312 20.484375 -37.601562 20.734375 -37.9375 C 20.992188 -38.28125 21.546875 -38.875 22.390625 -39.71875 C 23.234375 -40.5625 24.132812 -41.320312 25.09375 -42 C 26.050781 -42.675781 27.289062 -43.28125 28.8125 -43.8125 C 30.332031 -44.34375 31.882812 -44.609375 33.46875 -44.609375 C 35.09375 -44.609375 36.691406 -44.382812 38.265625 -43.9375 C 39.847656 -43.488281 41.007812 -43.039062 41.75 -42.59375 L 42.921875 -41.90625 L 36.671875 -29.234375 C 34.816406 -30.816406 32.226562 -31.609375 28.90625 -31.609375 C 27.09375 -31.609375 25.539062 -31.210938 24.25 -30.421875 C 22.957031 -29.628906 22.039062 -28.671875 21.5 -27.546875 C 20.96875 -26.421875 20.585938 -25.460938 20.359375 -24.671875 C 20.140625 -23.878906 20.03125 -23.257812 20.03125 -22.8125 L 20.03125 0 Z M 5.0625 0 "/></g></g></g><g fill="#1c2120" fill-opacity="1"><g transform="translate(120.394091, 202.782716)"><g><path d="M 48.921875 -19.609375 L 17.484375 -19.609375 C 17.484375 -16.566406 18.46875 -14.3125 20.4375 -12.84375 C 22.414062 -11.375 24.5625 -10.640625 26.875 -10.640625 C 29.289062 -10.640625 31.203125 -10.960938 32.609375 -11.609375 C 34.023438 -12.265625 35.632812 -13.550781 37.4375 -15.46875 L 48.25 -10.0625 C 43.738281 -2.507812 36.242188 1.265625 25.765625 1.265625 C 19.234375 1.265625 13.628906 -0.972656 8.953125 -5.453125 C 4.273438 -9.929688 1.9375 -15.320312 1.9375 -21.625 C 1.9375 -27.9375 4.273438 -33.34375 8.953125 -37.84375 C 13.628906 -42.351562 19.234375 -44.609375 25.765625 -44.609375 C 32.640625 -44.609375 38.234375 -42.625 42.546875 -38.65625 C 46.859375 -34.6875 49.015625 -29.007812 49.015625 -21.625 C 49.015625 -20.613281 48.984375 -19.941406 48.921875 -19.609375 Z M 17.90625 -27.890625 L 34.390625 -27.890625 C 34.054688 -30.140625 33.171875 -31.867188 31.734375 -33.078125 C 30.296875 -34.296875 28.445312 -34.90625 26.1875 -34.90625 C 23.71875 -34.90625 21.75 -34.253906 20.28125 -32.953125 C 18.8125 -31.660156 18.019531 -29.972656 17.90625 -27.890625 Z M 17.90625 -27.890625 "/></g></g></g><g fill="#1c2120" fill-opacity="1"><g transform="translate(165.934524, 202.782716)"><g><path d="M 23.90625 -44.609375 C 26.382812 -44.609375 28.835938 -44.328125 31.265625 -43.765625 C 33.691406 -43.203125 35.492188 -42.640625 36.671875 -42.078125 L 38.453125 -41.234375 L 33.546875 -31.4375 C 30.160156 -33.238281 26.945312 -34.140625 23.90625 -34.140625 C 22.21875 -34.140625 21.019531 -33.957031 20.3125 -33.59375 C 19.613281 -33.226562 19.265625 -32.535156 19.265625 -31.515625 C 19.265625 -31.296875 19.289062 -31.070312 19.34375 -30.84375 C 19.40625 -30.613281 19.519531 -30.398438 19.6875 -30.203125 C 19.851562 -30.003906 20.003906 -29.832031 20.140625 -29.6875 C 20.285156 -29.550781 20.523438 -29.398438 20.859375 -29.234375 C 21.203125 -29.066406 21.472656 -28.941406 21.671875 -28.859375 C 21.867188 -28.773438 22.191406 -28.644531 22.640625 -28.46875 C 23.097656 -28.300781 23.4375 -28.175781 23.65625 -28.09375 C 23.882812 -28.007812 24.265625 -27.882812 24.796875 -27.71875 C 25.335938 -27.550781 25.75 -27.4375 26.03125 -27.375 C 27.769531 -26.875 29.285156 -26.3125 30.578125 -25.6875 C 31.878906 -25.070312 33.25 -24.226562 34.6875 -23.15625 C 36.125 -22.082031 37.234375 -20.726562 38.015625 -19.09375 C 38.804688 -17.457031 39.203125 -15.597656 39.203125 -13.515625 C 39.203125 -3.660156 32.359375 1.265625 18.671875 1.265625 C 15.578125 1.265625 12.632812 0.785156 9.84375 -0.171875 C 7.050781 -1.128906 5.035156 -2.085938 3.796875 -3.046875 L 1.9375 -4.5625 L 8.03125 -14.78125 C 8.476562 -14.394531 9.066406 -13.929688 9.796875 -13.390625 C 10.535156 -12.859375 11.859375 -12.125 13.765625 -11.1875 C 15.679688 -10.257812 17.347656 -9.796875 18.765625 -9.796875 C 21.859375 -9.796875 23.40625 -10.835938 23.40625 -12.921875 C 23.40625 -13.878906 23.007812 -14.625 22.21875 -15.15625 C 21.4375 -15.695312 20.097656 -16.304688 18.203125 -16.984375 C 16.316406 -17.660156 14.84375 -18.28125 13.78125 -18.84375 C 11.070312 -20.25 8.925781 -21.835938 7.34375 -23.609375 C 5.769531 -25.390625 4.984375 -27.742188 4.984375 -30.671875 C 4.984375 -35.066406 6.6875 -38.488281 10.09375 -40.9375 C 13.5 -43.382812 18.101562 -44.609375 23.90625 -44.609375 Z M 23.90625 -44.609375 "/></g></g></g><g fill="#1c2120" fill-opacity="1"><g transform="translate(202.096318, 202.782716)"><g><path d="M 8.015625 -5.359375 C 3.960938 -9.785156 1.9375 -15.207031 1.9375 -21.625 C 1.9375 -28.050781 3.960938 -33.488281 8.015625 -37.9375 C 12.078125 -42.382812 17.234375 -44.609375 23.484375 -44.609375 C 29.234375 -44.609375 33.96875 -42.804688 37.6875 -39.203125 L 37.6875 -43.34375 L 52.640625 -43.34375 L 52.640625 0 L 37.859375 0 L 37.859375 -4.90625 L 37.6875 -4.90625 C 33.96875 -0.789062 29.234375 1.265625 23.484375 1.265625 C 17.234375 1.265625 12.078125 -0.941406 8.015625 -5.359375 Z M 20.734375 -28.984375 C 18.796875 -27.066406 17.828125 -24.613281 17.828125 -21.625 C 17.828125 -18.644531 18.753906 -16.207031 20.609375 -14.3125 C 22.472656 -12.425781 24.925781 -11.484375 27.96875 -11.484375 C 30.894531 -11.484375 33.300781 -12.441406 35.1875 -14.359375 C 37.082031 -16.273438 38.03125 -18.695312 38.03125 -21.625 C 38.03125 -24.613281 37.054688 -27.066406 35.109375 -28.984375 C 33.160156 -30.898438 30.78125 -31.859375 27.96875 -31.859375 C 25.09375 -31.859375 22.679688 -30.898438 20.734375 -28.984375 Z M 20.734375 -28.984375 "/></g></g></g><g fill="#1c2120" fill-opacity="1"><g transform="translate(254.396135, 202.782716)"><g><path d="M 5.0625 0 L 5.0625 -72.671875 L 20.03125 -72.671875 L 20.03125 0 Z M 5.0625 0 "/></g></g></g><g fill="#1c2120" fill-opacity="1"><g transform="translate(274.08194, 202.782716)"><g><path d="M 48.921875 -19.609375 L 17.484375 -19.609375 C 17.484375 -16.566406 18.46875 -14.3125 20.4375 -12.84375 C 22.414062 -11.375 24.5625 -10.640625 26.875 -10.640625 C 29.289062 -10.640625 31.203125 -10.960938 32.609375 -11.609375 C 34.023438 -12.265625 35.632812 -13.550781 37.4375 -15.46875 L 48.25 -10.0625 C 43.738281 -2.507812 36.242188 1.265625 25.765625 1.265625 C 19.234375 1.265625 13.628906 -0.972656 8.953125 -5.453125 C 4.273438 -9.929688 1.9375 -15.320312 1.9375 -21.625 C 1.9375 -27.9375 4.273438 -33.34375 8.953125 -37.84375 C 13.628906 -42.351562 19.234375 -44.609375 25.765625 -44.609375 C 32.640625 -44.609375 38.234375 -42.625 42.546875 -38.65625 C 46.859375 -34.6875 49.015625 -29.007812 49.015625 -21.625 C 49.015625 -20.613281 48.984375 -19.941406 48.921875 -19.609375 Z M 17.90625 -27.890625 L 34.390625 -27.890625 C 34.054688 -30.140625 33.171875 -31.867188 31.734375 -33.078125 C 30.296875 -34.296875 28.445312 -34.90625 26.1875 -34.90625 C 23.71875 -34.90625 21.75 -34.253906 20.28125 -32.953125 C 18.8125 -31.660156 18.019531 -29.972656 17.90625 -27.890625 Z M 17.90625 -27.890625 "/></g></g></g><g fill="#ffb600" fill-opacity="1"><g transform="translate(319.623768, 202.782716)"><g><path d="M 14.703125 -18.078125 C 17.410156 -18.078125 19.707031 -17.132812 21.59375 -15.25 C 23.476562 -13.363281 24.421875 -11.066406 24.421875 -8.359375 C 24.421875 -5.710938 23.476562 -3.445312 21.59375 -1.5625 C 19.707031 0.320312 17.410156 1.265625 14.703125 1.265625 C 12.054688 1.265625 9.785156 0.320312 7.890625 -1.5625 C 6.003906 -3.445312 5.0625 -5.710938 5.0625 -8.359375 C 5.0625 -11.066406 6.003906 -13.363281 7.890625 -15.25 C 9.785156 -17.132812 12.054688 -18.078125 14.703125 -18.078125 Z M 14.703125 -18.078125 "/></g></g></g><g fill="#1c2120" fill-opacity="1"><g transform="translate(168.660568, 238.166644)"><g><path d="M 13.03125 -11.828125 C 13.03125 -10.441406 12.550781 -9.285156 11.59375 -8.359375 C 10.644531 -7.441406 9.195312 -6.984375 7.25 -6.984375 L 4.03125 -6.984375 L 4.03125 0 L 1.84375 0 L 1.84375 -16.734375 L 7.25 -16.734375 C 9.132812 -16.734375 10.566406 -16.273438 11.546875 -15.359375 C 12.535156 -14.441406 13.03125 -13.265625 13.03125 -11.828125 Z M 7.25 -8.78125 C 8.46875 -8.78125 9.363281 -9.046875 9.9375 -9.578125 C 10.507812 -10.109375 10.796875 -10.859375 10.796875 -11.828125 C 10.796875 -13.890625 9.613281 -14.921875 7.25 -14.921875 L 4.03125 -14.921875 L 4.03125 -8.78125 Z M 7.25 -8.78125 "/></g></g></g><g fill="#1c2120" fill-opacity="1"><g transform="translate(187.781733, 238.166644)"><g><path d="M 10.65625 0 L 6.671875 -6.84375 L 4.03125 -6.84375 L 4.03125 0 L 1.84375 0 L 1.84375 -16.734375 L 7.25 -16.734375 C 8.507812 -16.734375 9.578125 -16.515625 10.453125 -16.078125 C 11.328125 -15.648438 11.976562 -15.066406 12.40625 -14.328125 C 12.84375 -13.585938 13.0625 -12.75 13.0625 -11.8125 C 13.0625 -10.65625 12.726562 -9.632812 12.0625 -8.75 C 11.394531 -7.875 10.398438 -7.296875 9.078125 -7.015625 L 13.265625 0 Z M 4.03125 -8.59375 L 7.25 -8.59375 C 8.4375 -8.59375 9.320312 -8.882812 9.90625 -9.46875 C 10.5 -10.050781 10.796875 -10.832031 10.796875 -11.8125 C 10.796875 -12.800781 10.503906 -13.566406 9.921875 -14.109375 C 9.335938 -14.648438 8.445312 -14.921875 7.25 -14.921875 L 4.03125 -14.921875 Z M 4.03125 -8.59375 "/></g></g></g><g fill="#1c2120" fill-opacity="1"><g transform="translate(207.598562, 238.166644)"><g><path d="M 9.4375 0.171875 C 7.882812 0.171875 6.46875 -0.191406 5.1875 -0.921875 C 3.90625 -1.648438 2.890625 -2.664062 2.140625 -3.96875 C 1.398438 -5.269531 1.03125 -6.738281 1.03125 -8.375 C 1.03125 -10.007812 1.398438 -11.476562 2.140625 -12.78125 C 2.890625 -14.082031 3.90625 -15.097656 5.1875 -15.828125 C 6.46875 -16.554688 7.882812 -16.921875 9.4375 -16.921875 C 11 -16.921875 12.421875 -16.554688 13.703125 -15.828125 C 14.984375 -15.097656 15.988281 -14.082031 16.71875 -12.78125 C 17.457031 -11.488281 17.828125 -10.019531 17.828125 -8.375 C 17.828125 -6.726562 17.457031 -5.253906 16.71875 -3.953125 C 15.988281 -2.660156 14.984375 -1.648438 13.703125 -0.921875 C 12.421875 -0.191406 11 0.171875 9.4375 0.171875 Z M 9.4375 -1.734375 C 10.601562 -1.734375 11.648438 -2.003906 12.578125 -2.546875 C 13.515625 -3.085938 14.25 -3.863281 14.78125 -4.875 C 15.320312 -5.882812 15.59375 -7.050781 15.59375 -8.375 C 15.59375 -9.71875 15.320312 -10.890625 14.78125 -11.890625 C 14.25 -12.890625 13.519531 -13.660156 12.59375 -14.203125 C 11.664062 -14.753906 10.613281 -15.03125 9.4375 -15.03125 C 8.25 -15.03125 7.191406 -14.753906 6.265625 -14.203125 C 5.335938 -13.660156 4.601562 -12.890625 4.0625 -11.890625 C 3.53125 -10.890625 3.265625 -9.71875 3.265625 -8.375 C 3.265625 -7.050781 3.53125 -5.882812 4.0625 -4.875 C 4.601562 -3.863281 5.34375 -3.085938 6.28125 -2.546875 C 7.21875 -2.003906 8.269531 -1.734375 9.4375 -1.734375 Z M 9.4375 -1.734375 "/></g></g></g><g fill="#1c2120" fill-opacity="1"><g transform="translate(231.685295, 238.166644)"><g><path d="M 13.03125 -11.828125 C 13.03125 -10.441406 12.550781 -9.285156 11.59375 -8.359375 C 10.644531 -7.441406 9.195312 -6.984375 7.25 -6.984375 L 4.03125 -6.984375 L 4.03125 0 L 1.84375 0 L 1.84375 -16.734375 L 7.25 -16.734375 C 9.132812 -16.734375 10.566406 -16.273438 11.546875 -15.359375 C 12.535156 -14.441406 13.03125 -13.265625 13.03125 -11.828125 Z M 7.25 -8.78125 C 8.46875 -8.78125 9.363281 -9.046875 9.9375 -9.578125 C 10.507812 -10.109375 10.796875 -10.859375 10.796875 -11.828125 C 10.796875 -13.890625 9.613281 -14.921875 7.25 -14.921875 L 4.03125 -14.921875 L 4.03125 -8.78125 Z M 7.25 -8.78125 "/></g></g></g><g fill="#1c2120" fill-opacity="1"><g transform="translate(250.806459, 238.166644)"><g><path d="M 4.03125 -14.953125 L 4.03125 -9.359375 L 10.125 -9.359375 L 10.125 -7.5625 L 4.03125 -7.5625 L 4.03125 -1.796875 L 10.84375 -1.796875 L 10.84375 0 L 1.84375 0 L 1.84375 -16.75 L 10.84375 -16.75 L 10.84375 -14.953125 Z M 4.03125 -14.953125 "/></g></g></g><g fill="#1c2120" fill-opacity="1"><g transform="translate(268.344403, 238.166644)"><g><path d="M 10.65625 0 L 6.671875 -6.84375 L 4.03125 -6.84375 L 4.03125 0 L 1.84375 0 L 1.84375 -16.734375 L 7.25 -16.734375 C 8.507812 -16.734375 9.578125 -16.515625 10.453125 -16.078125 C 11.328125 -15.648438 11.976562 -15.066406 12.40625 -14.328125 C 12.84375 -13.585938 13.0625 -12.75 13.0625 -11.8125 C 13.0625 -10.65625 12.726562 -9.632812 12.0625 -8.75 C 11.394531 -7.875 10.398438 -7.296875 9.078125 -7.015625 L 13.265625 0 Z M 4.03125 -8.59375 L 7.25 -8.59375 C 8.4375 -8.59375 9.320312 -8.882812 9.90625 -9.46875 C 10.5 -10.050781 10.796875 -10.832031 10.796875 -11.8125 C 10.796875 -12.800781 10.503906 -13.566406 9.921875 -14.109375 C 9.335938 -14.648438 8.445312 -14.921875 7.25 -14.921875 L 4.03125 -14.921875 Z M 4.03125 -8.59375 "/></g></g></g><g fill="#1c2120" fill-opacity="1"><g transform="translate(288.161231, 238.166644)"><g><path d="M 12.140625 -16.734375 L 12.140625 -14.953125 L 7.578125 -14.953125 L 7.578125 0 L 5.40625 0 L 5.40625 -14.953125 L 0.8125 -14.953125 L 0.8125 -16.734375 Z M 12.140625 -16.734375 "/></g></g></g><g fill="#1c2120" fill-opacity="1"><g transform="translate(306.370852, 238.166644)"><g><path d="M 4.03125 -16.734375 L 4.03125 0 L 1.84375 0 L 1.84375 -16.734375 Z M 4.03125 -16.734375 "/></g></g></g><g fill="#1c2120" fill-opacity="1"><g transform="translate(317.503938, 238.166644)"><g><path d="M 4.03125 -14.953125 L 4.03125 -9.359375 L 10.125 -9.359375 L 10.125 -7.5625 L 4.03125 -7.5625 L 4.03125 -1.796875 L 10.84375 -1.796875 L 10.84375 0 L 1.84375 0 L 1.84375 -16.75 L 10.84375 -16.75 L 10.84375 -14.953125 Z M 4.03125 -14.953125 "/></g></g></g><g fill="#1c2120" fill-opacity="1"><g transform="translate(335.041881, 238.166644)"><g><path d="M 7.15625 0.171875 C 6.050781 0.171875 5.0625 -0.0234375 4.1875 -0.421875 C 3.3125 -0.816406 2.625 -1.359375 2.125 -2.046875 C 1.632812 -2.742188 1.382812 -3.550781 1.375 -4.46875 L 3.703125 -4.46875 C 3.773438 -3.675781 4.09375 -3.015625 4.65625 -2.484375 C 5.226562 -1.953125 6.0625 -1.6875 7.15625 -1.6875 C 8.195312 -1.6875 9.015625 -1.941406 9.609375 -2.453125 C 10.210938 -2.972656 10.515625 -3.644531 10.515625 -4.46875 C 10.515625 -5.101562 10.335938 -5.617188 9.984375 -6.015625 C 9.628906 -6.421875 9.1875 -6.726562 8.65625 -6.9375 C 8.132812 -7.144531 7.425781 -7.367188 6.53125 -7.609375 C 5.425781 -7.898438 4.539062 -8.1875 3.875 -8.46875 C 3.207031 -8.757812 2.640625 -9.210938 2.171875 -9.828125 C 1.703125 -10.441406 1.46875 -11.269531 1.46875 -12.3125 C 1.46875 -13.226562 1.695312 -14.035156 2.15625 -14.734375 C 2.625 -15.441406 3.273438 -15.984375 4.109375 -16.359375 C 4.953125 -16.742188 5.921875 -16.9375 7.015625 -16.9375 C 8.578125 -16.9375 9.859375 -16.546875 10.859375 -15.765625 C 11.859375 -14.984375 12.421875 -13.941406 12.546875 -12.640625 L 10.15625 -12.640625 C 10.070312 -13.285156 9.734375 -13.851562 9.140625 -14.34375 C 8.546875 -14.832031 7.765625 -15.078125 6.796875 -15.078125 C 5.878906 -15.078125 5.132812 -14.835938 4.5625 -14.359375 C 3.988281 -13.890625 3.703125 -13.234375 3.703125 -12.390625 C 3.703125 -11.773438 3.875 -11.273438 4.21875 -10.890625 C 4.5625 -10.503906 4.984375 -10.210938 5.484375 -10.015625 C 5.984375 -9.816406 6.691406 -9.59375 7.609375 -9.34375 C 8.710938 -9.03125 9.597656 -8.722656 10.265625 -8.421875 C 10.941406 -8.128906 11.519531 -7.675781 12 -7.0625 C 12.476562 -6.445312 12.71875 -5.613281 12.71875 -4.5625 C 12.71875 -3.75 12.5 -2.976562 12.0625 -2.25 C 11.632812 -1.53125 10.992188 -0.945312 10.140625 -0.5 C 9.296875 -0.0507812 8.300781 0.171875 7.15625 0.171875 Z M 7.15625 0.171875 "/></g></g></g></svg>